<?xml version="1.0" standalone="no"?>
<!DOCTYPE svg PUBLIC "-//W3C//DTD SVG 20010904//EN"
 "http://www.w3.org/TR/2001/REC-SVG-20010904/DTD/svg10.dtd">
<svg version="1.0" xmlns="http://www.w3.org/2000/svg"
 width="512.000000pt" height="512.000000pt" viewBox="0 0 512.000000 512.000000"
 preserveAspectRatio="xMidYMid meet">

<g transform="translate(0.000000,512.000000) scale(0.100000,-0.100000)"
fill="#000000" stroke="none">
<path d="M1175 5106 c-159 -40 -289 -165 -329 -318 -28 -109 -806 -4298 -806
-4342 0 -23 7 -68 15 -99 45 -172 176 -301 343 -336 76 -16 3589 -16 3664 0
182 39 324 193 351 382 10 71 6 93 -222 1317 -128 685 -234 1250 -236 1256 -2
6 97 184 219 395 l221 384 61 -3 c72 -4 162 16 236 54 158 80 263 291 230 465
-11 58 -53 159 -86 204 -13 18 -5 37 110 235 69 119 127 232 130 252 9 55 -27
123 -79 149 -49 26 -112 22 -154 -9 -16 -12 -79 -109 -154 -239 l-127 -218
-63 3 c-127 7 -240 -38 -334 -133 -98 -97 -144 -222 -131 -358 6 -67 43 -165
84 -225 l18 -27 -132 -229 c-73 -126 -135 -223 -138 -215 -3 8 -52 273 -111
589 -139 754 -141 763 -174 829 -61 120 -181 213 -309 240 -80 17 -2029 14
-2097 -3z m2065 -302 c75 -30 70 -9 241 -929 l157 -840 -365 -635 c-202 -349
-367 -636 -368 -638 -1 -1 -38 9 -81 24 -71 24 -97 27 -261 32 l-183 4 0 149
0 149 91 0 c112 0 158 21 189 85 25 52 25 78 0 130 -31 64 -77 85 -189 85
l-91 0 0 300 0 300 241 0 c230 0 243 1 280 22 41 23 79 84 79 128 0 44 -38
105 -79 128 -37 21 -50 22 -280 22 l-241 0 0 300 0 300 91 0 c112 0 158 21
189 85 25 52 25 78 0 130 -31 64 -77 85 -189 85 l-91 0 0 87 c0 107 -21 159
-79 191 -49 28 -96 28 -145 -1 -59 -34 -76 -74 -76 -184 l0 -93 -92 0 c-78 0
-99 -4 -132 -23 -100 -57 -100 -197 0 -254 33 -19 54 -23 132 -23 l92 0 0
-300 0 -300 -242 0 c-233 0 -245 -1 -282 -23 -100 -57 -100 -197 0 -254 37
-22 49 -23 282 -23 l242 0 0 -300 0 -300 -92 0 c-78 0 -99 -4 -132 -23 -100
-57 -100 -197 0 -254 33 -19 54 -23 132 -23 l92 0 0 -149 0 -149 -182 -5
c-251 -6 -339 -36 -498 -169 -47 -39 -110 -82 -140 -97 l-55 -26 -332 -3
c-183 -2 -333 0 -333 3 0 4 133 719 295 1588 224 1205 300 1592 317 1626 44
86 -30 81 1075 81 869 0 977 -2 1013 -16z m1311 -485 c43 -21 78 -80 79 -128
0 -48 -38 -108 -84 -130 -54 -27 -81 -26 -136 2 -57 29 -83 75 -77 138 10 112
117 170 218 118z m-732 -2257 c52 -279 97 -515 99 -525 4 -17 -12 -18 -329
-15 -328 3 -335 3 -387 27 -29 13 -52 29 -50 36 4 18 562 984 568 985 3 0 47
-228 99 -508z m-1059 -573 c30 -15 93 -58 140 -97 86 -73 162 -116 260 -148
48 -16 102 -18 438 -22 210 -2 382 -7 382 -11 0 -4 32 -177 70 -385 60 -318
69 -383 60 -414 -10 -38 -46 -80 -87 -101 -16 -8 -503 -11 -1793 -11 l-1772 0
-39 22 c-39 21 -79 84 -79 122 0 9 31 185 70 391 38 206 70 377 70 380 0 3
159 5 353 5 400 0 443 6 572 69 44 22 116 70 160 106 85 72 133 100 192 114
21 5 243 9 493 8 l455 -2 55 -26z"/>
<path d="M1856 1197 c-21 -12 -47 -38 -57 -57 -38 -71 -13 -157 57 -197 38
-22 46 -23 373 -23 324 0 334 1 372 22 41 23 79 84 79 128 0 44 -38 105 -79
128 -38 21 -48 22 -372 22 -327 0 -335 -1 -373 -23z"/>
</g>
</svg>
